<svg xmlns="http://www.w3.org/2000/svg" viewBox="0 0 24 24" fill="none">
  <path d="M16.8 8.3V6.12c-.64-.05-1.27-.24-1.86-.55a4.84 4.84 0 01-2.14-2.72H10.5v11.4a2.88 2.88 0 11-2.04-2.76V9.26a5.1 5.1 0 00-.54-.03 5.12 5.12 0 105.12 5.12V5.7a7.17 7.17 0 003.76 1.05V8.3z" fill="#FF0050"/>
  <path d="M14.94 6.3V8.75a7.17 7.17 0 01-3.76-1.05v7.55a5.12 5.12 0 11-5.12-5.12c.18 0 .36.01.54.03v2.23a2.88 2.88 0 102.04 2.76V3.85h2.3a4.84 4.84 0 002.14 2.72c.59.31 1.22.5 1.86.55v-2.17z" fill="#000000"/>
</svg>
